<mxfile host="app.diagrams.net" agent="Mozilla/5.0 (Windows NT 10.0; Win64; x64) AppleWebKit/537.36 (KHTML, like Gecko) Chrome/134.0.0.0 Safari/537.36 Edg/134.0.0.0" version="26.1.1">
  <diagram name="Page-1" id="G6ItOIY38JXHPqsH0K1o">
    <mxGraphModel dx="794" dy="480" grid="1" gridSize="10" guides="1" tooltips="1" connect="1" arrows="1" fold="1" page="1" pageScale="1" pageWidth="850" pageHeight="1100" math="0" shadow="0">
      <root>
        <mxCell id="0" />
        <mxCell id="1" parent="0" />
        <mxCell id="fSjVShYFLCvucPTeJ0q--4" value="" style="edgeStyle=orthogonalEdgeStyle;rounded=0;orthogonalLoop=1;jettySize=auto;html=1;" edge="1" parent="1" source="fSjVShYFLCvucPTeJ0q--2" target="fSjVShYFLCvucPTeJ0q--3">
          <mxGeometry relative="1" as="geometry" />
        </mxCell>
        <mxCell id="fSjVShYFLCvucPTeJ0q--2" value="Program Start" style="ellipse;whiteSpace=wrap;html=1;" vertex="1" parent="1">
          <mxGeometry x="40" y="200" width="120" height="80" as="geometry" />
        </mxCell>
        <mxCell id="fSjVShYFLCvucPTeJ0q--10" value="" style="edgeStyle=orthogonalEdgeStyle;rounded=0;orthogonalLoop=1;jettySize=auto;html=1;" edge="1" parent="1" source="fSjVShYFLCvucPTeJ0q--3" target="fSjVShYFLCvucPTeJ0q--9">
          <mxGeometry relative="1" as="geometry" />
        </mxCell>
        <mxCell id="fSjVShYFLCvucPTeJ0q--3" value="Welcome Message" style="whiteSpace=wrap;html=1;" vertex="1" parent="1">
          <mxGeometry x="240" y="210" width="120" height="60" as="geometry" />
        </mxCell>
        <mxCell id="fSjVShYFLCvucPTeJ0q--12" value="Login" style="edgeStyle=orthogonalEdgeStyle;rounded=0;orthogonalLoop=1;jettySize=auto;html=1;" edge="1" parent="1" source="fSjVShYFLCvucPTeJ0q--9" target="fSjVShYFLCvucPTeJ0q--11">
          <mxGeometry relative="1" as="geometry" />
        </mxCell>
        <mxCell id="fSjVShYFLCvucPTeJ0q--14" value="Register" style="edgeStyle=orthogonalEdgeStyle;rounded=0;orthogonalLoop=1;jettySize=auto;html=1;" edge="1" parent="1" source="fSjVShYFLCvucPTeJ0q--9" target="fSjVShYFLCvucPTeJ0q--13">
          <mxGeometry relative="1" as="geometry" />
        </mxCell>
        <mxCell id="fSjVShYFLCvucPTeJ0q--9" value="Provide option to Log In or Register" style="rhombus;whiteSpace=wrap;html=1;" vertex="1" parent="1">
          <mxGeometry x="460" y="200" width="80" height="80" as="geometry" />
        </mxCell>
        <mxCell id="fSjVShYFLCvucPTeJ0q--18" value="user enters&lt;div&gt;nametag&lt;/div&gt;" style="edgeStyle=orthogonalEdgeStyle;rounded=0;orthogonalLoop=1;jettySize=auto;html=1;" edge="1" parent="1" source="fSjVShYFLCvucPTeJ0q--11" target="fSjVShYFLCvucPTeJ0q--17">
          <mxGeometry relative="1" as="geometry" />
        </mxCell>
        <mxCell id="fSjVShYFLCvucPTeJ0q--11" value="Request User to enter nametag" style="whiteSpace=wrap;html=1;" vertex="1" parent="1">
          <mxGeometry x="440" y="50" width="120" height="60" as="geometry" />
        </mxCell>
        <mxCell id="fSjVShYFLCvucPTeJ0q--25" value="user enters&lt;div&gt;nametag&lt;/div&gt;" style="edgeStyle=orthogonalEdgeStyle;rounded=0;orthogonalLoop=1;jettySize=auto;html=1;" edge="1" parent="1" source="fSjVShYFLCvucPTeJ0q--13" target="fSjVShYFLCvucPTeJ0q--24">
          <mxGeometry relative="1" as="geometry" />
        </mxCell>
        <mxCell id="fSjVShYFLCvucPTeJ0q--13" value="Prompt user to create a nametag" style="whiteSpace=wrap;html=1;" vertex="1" parent="1">
          <mxGeometry x="440" y="370" width="120" height="60" as="geometry" />
        </mxCell>
        <mxCell id="fSjVShYFLCvucPTeJ0q--20" value="nametag exists" style="edgeStyle=orthogonalEdgeStyle;rounded=0;orthogonalLoop=1;jettySize=auto;html=1;" edge="1" parent="1" source="fSjVShYFLCvucPTeJ0q--17" target="fSjVShYFLCvucPTeJ0q--19">
          <mxGeometry relative="1" as="geometry" />
        </mxCell>
        <mxCell id="fSjVShYFLCvucPTeJ0q--26" value="nametag doesn&#39;t exist" style="edgeStyle=orthogonalEdgeStyle;rounded=0;orthogonalLoop=1;jettySize=auto;html=1;exitX=0.5;exitY=1;exitDx=0;exitDy=0;entryX=1;entryY=0.5;entryDx=0;entryDy=0;" edge="1" parent="1" source="fSjVShYFLCvucPTeJ0q--17" target="fSjVShYFLCvucPTeJ0q--9">
          <mxGeometry relative="1" as="geometry" />
        </mxCell>
        <mxCell id="fSjVShYFLCvucPTeJ0q--17" value="program checks for existing nametag" style="rhombus;whiteSpace=wrap;html=1;" vertex="1" parent="1">
          <mxGeometry x="660" y="40" width="80" height="80" as="geometry" />
        </mxCell>
        <mxCell id="fSjVShYFLCvucPTeJ0q--19" value="Prompt user to enter password" style="whiteSpace=wrap;html=1;" vertex="1" parent="1">
          <mxGeometry x="840" y="50" width="120" height="60" as="geometry" />
        </mxCell>
        <mxCell id="fSjVShYFLCvucPTeJ0q--24" value="Generate a password for user and ask them to save it" style="whiteSpace=wrap;html=1;" vertex="1" parent="1">
          <mxGeometry x="440" y="480" width="120" height="60" as="geometry" />
        </mxCell>
      </root>
    </mxGraphModel>
  </diagram>
</mxfile>
